<svg width="32" height="20" fill="none" xmlns="http://www.w3.org/2000/svg"><g id="Mastercard" fill-rule="evenodd" clip-rule="evenodd"><path id="Left" d="M16 16.834a9.083 9.083 0 0 1-5.935 2.199c-5.054 0-9.15-4.12-9.15-9.204 0-5.083 4.096-9.204 9.15-9.204 2.264 0 4.337.828 5.935 2.199A9.083 9.083 0 0 1 21.935.625c5.054 0 9.15 4.12 9.15 9.204 0 5.083-4.096 9.204-9.15 9.204A9.083 9.083 0 0 1 16 16.834Z" fill="#ED0006"/><path id="Right" d="M16 16.834a9.206 9.206 0 0 0 3.215-7.005A9.206 9.206 0 0 0 16 2.824 9.083 9.083 0 0 1 21.935.625c5.054 0 9.15 4.12 9.15 9.204 0 5.083-4.096 9.204-9.15 9.204A9.083 9.083 0 0 1 16 16.834Z" fill="#F9A000"/><path id="Middle" d="M16 16.834a9.206 9.206 0 0 0 3.215-7.005A9.206 9.206 0 0 0 16 2.824a9.206 9.206 0 0 0-3.215 7.005A9.205 9.205 0 0 0 16 16.834Z" fill="#FF5E00"/></g></svg>