<svg width="28" height="28" viewBox="0 0 28 28" fill="none" xmlns="http://www.w3.org/2000/svg">
<ellipse cx="14" cy="14" rx="14" ry="14" transform="matrix(0 1 1 0 0 0)" fill="white"/>
<path d="M14.4734 14.9336C14.4114 14.9961 14.3377 15.0457 14.2565 15.0795C14.1752 15.1134 14.0881 15.1308 14.0001 15.1308C13.9121 15.1308 13.8249 15.1134 13.7437 15.0795C13.6625 15.0457 13.5887 14.9961 13.5268 14.9336L10.4734 11.8736C10.4114 11.8111 10.3377 11.7615 10.2565 11.7277C10.1752 11.6938 10.0881 11.6764 10.0001 11.6764C9.91207 11.6764 9.82494 11.6938 9.7437 11.7277C9.66246 11.7615 9.58872 11.8111 9.52675 11.8736C9.40258 11.9985 9.33289 12.1675 9.33289 12.3436C9.33289 12.5197 9.40258 12.6887 9.52675 12.8136L12.5868 15.8736C12.9618 16.2481 13.4701 16.4585 14.0001 16.4585C14.5301 16.4585 15.0384 16.2481 15.4134 15.8736L18.4734 12.8136C18.5966 12.6894 18.666 12.5218 18.6668 12.3469C18.6673 12.2592 18.6504 12.1722 18.6173 12.091C18.5841 12.0098 18.5352 11.9359 18.4734 11.8736C18.4114 11.8111 18.3377 11.7615 18.2565 11.7277C18.1752 11.6938 18.0881 11.6764 18.0001 11.6764C17.9121 11.6764 17.8249 11.6938 17.7437 11.7277C17.6625 11.7615 17.5887 11.8111 17.5268 11.8736L14.4734 14.9336Z" fill="#FD9222"/>
</svg>
